<?xml version="1.0" encoding="utf-8"?>
<svg xmlns="http://www.w3.org/2000/svg" style="margin: auto; background: none; display: block; shape-rendering: auto;" width="230" height="58" preserveAspectRatio="xMidYMid">
<style type="text/css">
  text {
    text-anchor: middle; font-size: 40px; opacity: 0;
  }
</style>
<g style="transform-origin: 115px 29px; transform: scale(0.952381);">
<g transform="translate(115,29)">
  <g transform="translate(-5,0)"><g class="path" style="transform: matrix(0.01, 0, 0, 0.01, 0, 0); transform-origin: -95.93px -2.98777px; animation: 1s linear 0s 1 normal forwards running bounce-in-7cfee529-cc5d-47bc-adfc-163e037c39e0;"><path d="M22.26 0L22.26-13.40L7.77-13.40L7.77 0L3.78 0L3.78-29.40L7.77-29.40L7.77-16.84L22.26-16.84L22.26-29.40L26.25-29.40L26.25 0L22.26 0" fill="#d03737" stroke="none" stroke-width="none" transform="translate(-110.94495248794556,11.712235074043274)" style="fill: rgb(208, 55, 55);"></path></g><g class="path" style="transform: matrix(0.01, 0, 0, 0.01, 0, 0); transform-origin: -68.355px 0.792234px; animation: 1s linear 0.055s 1 normal forwards running bounce-in-7cfee529-cc5d-47bc-adfc-163e037c39e0;"><path d="M49.60-10.92L49.60-10.92L49.60-10.92Q49.60-12.56 49.08-14.03L49.08-14.03L49.08-14.03Q48.55-15.50 47.61-16.59L47.61-16.59L47.61-16.59Q46.66-17.68 45.38-18.33L45.38-18.33L45.38-18.33Q44.10-18.98 42.59-18.98L42.59-18.98L42.59-18.98Q39.27-18.98 37.42-16.80L37.42-16.80L37.42-16.80Q35.57-14.62 35.57-11.00L35.57-11.00L35.57-11.00Q35.57-9.37 36.10-7.88L36.10-7.88L36.10-7.88Q36.62-6.38 37.57-5.27L37.57-5.27L37.57-5.27Q38.51-4.16 39.80-3.51L39.80-3.51L39.80-3.51Q41.08-2.86 42.59-2.86L42.59-2.86L42.59-2.86Q44.23-2.86 45.53-3.44L45.53-3.44L45.53-3.44Q46.83-4.03 47.73-5.10L47.73-5.10L47.73-5.10Q48.64-6.17 49.12-7.64L49.12-7.64L49.12-7.64Q49.60-9.11 49.60-10.92zM31.71-10.92L31.71-10.92L31.71-10.92Q31.71-13.57 32.55-15.69L32.55-15.69L32.55-15.69Q33.39-17.81 34.84-19.28L34.84-19.28L34.84-19.28Q36.29-20.75 38.28-21.55L38.28-21.55L38.28-21.55Q40.28-22.34 42.59-22.34L42.59-22.34L42.59-22.34Q44.86-22.34 46.85-21.55L46.85-21.55L46.85-21.55Q48.85-20.75 50.32-19.28L50.32-19.28L50.32-19.28Q51.79-17.81 52.63-15.71L52.63-15.71L52.63-15.71Q53.47-13.61 53.47-11.00L53.47-11.00L53.47-11.00Q53.47-8.40 52.65-6.28L52.65-6.28L52.65-6.28Q51.83-4.16 50.36-2.65L50.36-2.65L50.36-2.65Q48.89-1.13 46.89-0.32L46.89-0.32L46.89-0.32Q44.90 0.50 42.59 0.50L42.59 0.50L42.59 0.50Q40.24 0.50 38.24-0.34L38.24-0.34L38.24-0.34Q36.25-1.18 34.80-2.69L34.80-2.69L34.80-2.69Q33.35-4.20 32.53-6.30L32.53-6.30L32.53-6.30Q31.71-8.40 31.71-10.92" fill="#d03737" stroke="none" stroke-width="none" transform="translate(-110.94495248794556,11.712235074043274)" style="fill: rgb(208, 55, 55);"></path></g><g class="path" style="transform: matrix(0.01, 0, 0, 0.01, 0, 0); transform-origin: -42.59px -3.57777px; animation: 1s linear 0.11s 1 normal forwards running bounce-in-7cfee529-cc5d-47bc-adfc-163e037c39e0;"><path d="M58.51 0L58.51-31.08L62.29-31.08L62.29-19.57L62.29-19.57Q62.71-20.03 63.34-20.54L63.34-20.54L63.34-20.54Q63.97-21.04 64.74-21.44L64.74-21.44L64.74-21.44Q65.52-21.84 66.49-22.09L66.49-22.09L66.49-22.09Q67.45-22.34 68.59-22.34L68.59-22.34L68.59-22.34Q70.48-22.34 72.22-21.59L72.22-21.59L72.22-21.59Q73.96-20.83 75.28-19.40L75.28-19.40L75.28-19.40Q76.61-17.98 77.41-15.88L77.41-15.88L77.41-15.88Q78.20-13.78 78.20-11.13L78.20-11.13L78.20-11.13Q78.20-8.53 77.36-6.38L77.36-6.38L77.36-6.38Q76.52-4.24 75.14-2.71L75.14-2.71L75.14-2.71Q73.75-1.18 71.97-0.34L71.97-0.34L71.97-0.34Q70.18 0.50 68.33 0.50L68.33 0.50L68.33 0.50Q66.44 0.50 64.78-0.17L64.78-0.17L64.78-0.17Q63.13-0.84 62.03-1.81L62.03-1.81L62.03 0L58.51 0zM74.34-11.00L74.34-11.00L74.34-11.00Q74.34-12.89 73.81-14.39L73.81-14.39L73.81-14.39Q73.29-15.88 72.39-16.93L72.39-16.93L72.39-16.93Q71.48-17.98 70.29-18.52L70.29-18.52L70.29-18.52Q69.09-19.07 67.75-19.07L67.75-19.07L67.75-19.07Q65.94-19.07 64.49-18.17L64.49-18.17L64.49-18.17Q63.04-17.26 62.29-16.21L62.29-16.21L62.29-4.54L62.29-4.54Q63.25-3.78 64.55-3.32L64.55-3.32L64.55-3.32Q65.86-2.86 67.33-2.86L67.33-2.86L67.33-2.86Q68.84-2.86 70.14-3.44L70.14-3.44L70.14-3.44Q71.44-4.03 72.37-5.10L72.37-5.10L72.37-5.10Q73.29-6.17 73.81-7.67L73.81-7.67L73.81-7.67Q74.34-9.16 74.34-11.00" fill="#d03737" stroke="none" stroke-width="none" transform="translate(-110.94495248794556,11.712235074043274)" style="fill: rgb(208, 55, 55);"></path></g><g class="path" style="transform: matrix(0.01, 0, 0, 0.01, 0, 0); transform-origin: -17.645px -3.57777px; animation: 1s linear 0.165s 1 normal forwards running bounce-in-7cfee529-cc5d-47bc-adfc-163e037c39e0;"><path d="M83.45 0L83.45-31.08L87.23-31.08L87.23-19.57L87.23-19.57Q87.65-20.03 88.28-20.54L88.28-20.54L88.28-20.54Q88.91-21.04 89.69-21.44L89.69-21.44L89.69-21.44Q90.47-21.84 91.43-22.09L91.43-22.09L91.43-22.09Q92.40-22.34 93.53-22.34L93.53-22.34L93.53-22.34Q95.42-22.34 97.17-21.59L97.17-21.59L97.17-21.59Q98.91-20.83 100.23-19.40L100.23-19.40L100.23-19.40Q101.56-17.98 102.35-15.88L102.35-15.88L102.35-15.88Q103.15-13.78 103.15-11.13L103.15-11.13L103.15-11.13Q103.15-8.53 102.31-6.38L102.31-6.38L102.31-6.38Q101.47-4.24 100.09-2.71L100.09-2.71L100.09-2.71Q98.70-1.18 96.91-0.34L96.91-0.34L96.91-0.34Q95.13 0.50 93.28 0.50L93.28 0.50L93.28 0.50Q91.39 0.50 89.73-0.17L89.73-0.17L89.73-0.17Q88.07-0.84 86.98-1.81L86.98-1.81L86.98 0L83.45 0zM99.29-11.00L99.29-11.00L99.29-11.00Q99.29-12.89 98.76-14.39L98.76-14.39L98.76-14.39Q98.24-15.88 97.33-16.93L97.33-16.93L97.33-16.93Q96.43-17.98 95.23-18.52L95.23-18.52L95.23-18.52Q94.04-19.07 92.69-19.07L92.69-19.07L92.69-19.07Q90.89-19.07 89.44-18.17L89.44-18.17L89.44-18.17Q87.99-17.26 87.23-16.21L87.23-16.21L87.23-4.54L87.23-4.54Q88.20-3.78 89.50-3.32L89.50-3.32L89.50-3.32Q90.80-2.86 92.27-2.86L92.27-2.86L92.27-2.86Q93.79-2.86 95.09-3.44L95.09-3.44L95.09-3.44Q96.39-4.03 97.31-5.10L97.31-5.10L97.31-5.10Q98.24-6.17 98.76-7.67L98.76-7.67L98.76-7.67Q99.29-9.16 99.29-11.00" fill="#d03737" stroke="none" stroke-width="none" transform="translate(-110.94495248794556,11.712235074043274)" style="fill: rgb(208, 55, 55);"></path></g><g class="path" style="transform: matrix(0.01, 0, 0, 0.01, 0, 0); transform-origin: 4.13504px 5.41224px; animation: 1s linear 0.22s 1 normal forwards running bounce-in-7cfee529-cc5d-47bc-adfc-163e037c39e0;"><path d="M108.11 9.74L108.11 9.74L108.11 9.74Q106.85 9.74 105.90 9.49L105.90 9.49L105.90 9.49Q104.96 9.24 104.41 8.90L104.41 8.90L105.25 5.75L105.25 5.75Q105.76 6.05 106.49 6.26L106.49 6.26L106.49 6.26Q107.23 6.47 108.19 6.47L108.19 6.47L108.19 6.47Q109.07 6.47 109.85 6.22L109.85 6.22L109.85 6.22Q110.63 5.96 111.34 5.33L111.34 5.33L111.34 5.33Q112.06 4.70 112.71 3.61L112.71 3.61L112.71 3.61Q113.36 2.52 113.99 0.88L113.99 0.88L114.95-1.64L112.94-1.64L104.41-20.83L107.77-22.34L115.92-4.16L122.26-22.18L125.75-20.83L117.73 1.09L117.73 1.09Q116.80 3.61 115.77 5.27L115.77 5.27L115.77 5.27Q114.74 6.93 113.57 7.94L113.57 7.94L113.57 7.94Q112.39 8.95 111.03 9.35L111.03 9.35L111.03 9.35Q109.66 9.74 108.11 9.74" fill="#d03737" stroke="none" stroke-width="none" transform="translate(-110.94495248794556,11.712235074043274)" style="fill: rgb(208, 55, 55);"></path></g><g class="path" style="transform: matrix(0.01, 0, 0, 0.01, 0, 0); transform-origin: 20.475px 0.792234px; animation: 1s linear 0.275s 1 normal forwards running bounce-in-7cfee529-cc5d-47bc-adfc-163e037c39e0;"><path d="M133.31-21.84L133.31 0L129.53 0L129.53-21.84L133.31-21.84" fill="#d03737" stroke="none" stroke-width="none" transform="translate(-110.94495248794556,11.712235074043274)" style="fill: rgb(208, 55, 55);"></path></g><g class="path" style="transform: matrix(0.01, 0, 0, 0.01, 0, 0); transform-origin: 20.47px -16.5128px; animation: 1s linear 0.33s 1 normal forwards running bounce-in-7cfee529-cc5d-47bc-adfc-163e037c39e0;"><path d="M131.42-25.58L131.42-25.58L131.42-25.58Q130.33-25.58 129.55-26.36L129.55-26.36L129.55-26.36Q128.77-27.13 128.77-28.22L128.77-28.22L128.77-28.22Q128.77-29.44 129.49-30.16L129.49-30.16L129.49-30.16Q130.20-30.87 131.42-30.87L131.42-30.87L131.42-30.87Q132.51-30.87 133.29-30.09L133.29-30.09L133.29-30.09Q134.06-29.32 134.06-28.22L134.06-28.22L134.06-28.22Q134.06-27.01 133.35-26.29L133.35-26.29L133.35-26.29Q132.64-25.58 131.42-25.58" fill="#d03737" stroke="none" stroke-width="none" transform="translate(-110.94495248794556,11.712235074043274)" style="fill: rgb(208, 55, 55);"></path></g><g class="path" style="transform: matrix(0.01, 0, 0, 0.01, 0, 0); transform-origin: 35.445px 0.792234px; animation: 1s linear 0.385s 1 normal forwards running bounce-in-7cfee529-cc5d-47bc-adfc-163e037c39e0;"><path d="M138.14-1.76L139.73-4.91L139.73-4.91Q140.83-3.95 142.49-3.36L142.49-3.36L142.49-3.36Q144.14-2.77 146.03-2.77L146.03-2.77L146.03-2.77Q148.39-2.77 149.58-3.55L149.58-3.55L149.58-3.55Q150.78-4.33 150.78-5.54L150.78-5.54L150.78-5.54Q150.78-6.17 150.55-6.72L150.55-6.72L150.55-6.72Q150.32-7.27 149.71-7.77L149.71-7.77L149.71-7.77Q149.10-8.27 148.05-8.76L148.05-8.76L148.05-8.76Q147-9.24 145.32-9.83L145.32-9.83L145.32-9.83Q142.21-10.88 140.70-12.33L140.70-12.33L140.70-12.33Q139.19-13.78 139.19-16.34L139.19-16.34L139.19-16.34Q139.19-17.60 139.75-18.69L139.75-18.69L139.75-18.69Q140.32-19.78 141.39-20.60L141.39-20.60L141.39-20.60Q142.46-21.42 144.00-21.88L144.00-21.88L144.00-21.88Q145.53-22.34 147.50-22.34L147.50-22.34L147.50-22.34Q149.65-22.34 151.26-21.90L151.26-21.90L151.26-21.90Q152.88-21.46 154.18-20.79L154.18-20.79L153.13-17.68L153.13-17.68Q152.00-18.35 150.55-18.77L150.55-18.77L150.55-18.77Q149.10-19.19 147.34-19.19L147.34-19.19L147.34-19.19Q145.15-19.19 144.02-18.31L144.02-18.31L144.02-18.31Q142.88-17.43 142.88-16.38L142.88-16.38L142.88-16.38Q142.88-15.88 143.07-15.46L143.07-15.46L143.07-15.46Q143.26-15.04 143.77-14.66L143.77-14.66L143.77-14.66Q144.27-14.28 145.11-13.90L145.11-13.90L145.11-13.90Q145.95-13.52 147.21-13.10L147.21-13.10L147.21-13.10Q149.27-12.39 150.70-11.66L150.70-11.66L150.70-11.66Q152.12-10.92 153.01-10.04L153.01-10.04L153.01-10.04Q153.89-9.16 154.27-8.13L154.27-8.13L154.27-8.13Q154.64-7.10 154.64-5.84L154.64-5.84L154.64-5.84Q154.64-4.37 154.01-3.19L154.01-3.19L154.01-3.19Q153.38-2.02 152.25-1.20L152.25-1.20L152.25-1.20Q151.12-0.38 149.50 0.06L149.50 0.06L149.50 0.06Q147.88 0.50 145.91 0.50L145.91 0.50L145.91 0.50Q143.39 0.50 141.41-0.13L141.41-0.13L141.41-0.13Q139.44-0.76 138.14-1.76L138.14-1.76" fill="#d03737" stroke="none" stroke-width="none" transform="translate(-110.94495248794556,11.712235074043274)" style="fill: rgb(208, 55, 55);"></path></g><g class="path" style="transform: matrix(0.01, 0, 0, 0.01, 0, 0); transform-origin: 53.715px -2.00277px; animation: 1s linear 0.44s 1 normal forwards running bounce-in-7cfee529-cc5d-47bc-adfc-163e037c39e0;"><path d="M160.61-21.04L161.41-27.93L164.30-27.93L164.30-21.04L170.35-21.04L170.35-17.77L164.30-17.77L164.30-7.22L164.30-7.22Q164.30-6.01 164.58-5.17L164.58-5.17L164.58-5.17Q164.85-4.33 165.31-3.82L165.31-3.82L165.31-3.82Q165.77-3.32 166.43-3.09L166.43-3.09L166.43-3.09Q167.08-2.86 167.79-2.86L167.79-2.86L167.79-2.86Q168.84-2.86 169.76-3.19L169.76-3.19L169.76-3.19Q170.69-3.53 171.53-3.99L171.53-3.99L172.58-0.97L172.58-0.97Q171.74-0.46 170.31 0.02L170.31 0.02L170.31 0.02Q168.88 0.50 167.33 0.50L167.33 0.50L167.33 0.50Q164.18 0.50 162.35-1.55L162.35-1.55L162.35-1.55Q160.52-3.61 160.52-7.52L160.52-7.52L160.52-17.77L156.74-17.77L156.74-21.04L160.61-21.04" fill="#d03737" stroke="none" stroke-width="none" transform="translate(-110.94495248794556,11.712235074043274)" style="fill: rgb(208, 55, 55);"></path></g><g class="path" style="transform: matrix(0.01, 0, 0, 0.01, 0, 0); transform-origin: 68.35px 9.40223px; animation: 1s linear 0.495s 1 normal forwards running bounce-in-7cfee529-cc5d-47bc-adfc-163e037c39e0;"><path d="M176.48-2.31L176.48-2.31L176.48-2.31Q176.48-3.61 177.22-4.37L177.22-4.37L177.22-4.37Q177.95-5.12 179.30-5.12L179.30-5.12L179.30-5.12Q180.39-5.12 181.25-4.28L181.25-4.28L181.25-4.28Q182.11-3.44 182.11-2.31L182.11-2.31L182.11-2.31Q182.11-1.05 181.31-0.27L181.31-0.27L181.31-0.27Q180.52 0.50 179.30 0.50L179.30 0.50L179.30 0.50Q178.16 0.50 177.32-0.34L177.32-0.34L177.32-0.34Q176.48-1.18 176.48-2.31" fill="#d03737" stroke="none" stroke-width="none" transform="translate(-110.94495248794556,11.712235074043274)" style="fill: rgb(208, 55, 55);"></path></g><g class="path" style="transform: matrix(0.01, 0, 0, 0.01, 0, 0); transform-origin: 87.42px 5.16223px; animation: 1s linear 0.55s 1 normal forwards running bounce-in-7cfee529-cc5d-47bc-adfc-163e037c39e0;"><path d="M187.28-18.90L188.08-21.84L188.08-21.84Q191.94-21.84 192.91-18.77L192.91-18.77L192.91-18.77Q193.20-19.24 193.81-19.87L193.81-19.87L193.81-19.87Q194.42-20.50 195.30-21.04L195.30-21.04L195.30-21.04Q196.18-21.59 197.32-21.97L197.32-21.97L197.32-21.97Q198.45-22.34 199.84-22.34L199.84-22.34L199.84-22.34Q201.73-22.34 203.47-21.59L203.47-21.59L203.47-21.59Q205.21-20.83 206.54-19.40L206.54-19.40L206.54-19.40Q207.86-17.98 208.66-15.88L208.66-15.88L208.66-15.88Q209.45-13.78 209.45-11.13L209.45-11.13L209.45-11.13Q209.45-8.53 208.68-6.38L208.68-6.38L208.68-6.38Q207.90-4.24 206.58-2.71L206.58-2.71L206.58-2.71Q205.25-1.18 203.53-0.34L203.53-0.34L203.53-0.34Q201.81 0.50 199.92 0.50L199.92 0.50L199.92 0.50Q197.95 0.50 196.29-0.27L196.29-0.27L196.29-0.27Q194.63-1.05 193.54-2.06L193.54-2.06L193.54 9.24L189.76 9.24L189.76-16.25L189.76-16.25Q189.76-17.68 189.06-18.29L189.06-18.29L189.06-18.29Q188.37-18.90 187.28-18.90L187.28-18.90zM205.59-11.00L205.59-11.00L205.59-11.00Q205.59-12.89 205.07-14.39L205.07-14.39L205.07-14.39Q204.54-15.88 203.64-16.93L203.64-16.93L203.64-16.93Q202.73-17.98 201.54-18.52L201.54-18.52L201.54-18.52Q200.34-19.07 199.00-19.07L199.00-19.07L199.00-19.07Q197.19-19.07 195.74-18.17L195.74-18.17L195.74-18.17Q194.29-17.26 193.54-16.21L193.54-16.21L193.54-5.46L193.54-5.46Q194.63-4.33 196.04-3.59L196.04-3.59L196.04-3.59Q197.44-2.86 199.16-2.86L199.16-2.86L199.16-2.86Q200.59-2.86 201.77-3.44L201.77-3.44L201.77-3.44Q202.94-4.03 203.81-5.10L203.81-5.10L203.81-5.10Q204.67-6.17 205.13-7.67L205.13-7.67L205.13-7.67Q205.59-9.16 205.59-11.00" fill="#d03737" stroke="none" stroke-width="none" transform="translate(-110.94495248794556,11.712235074043274)" style="fill: rgb(208, 55, 55);"></path></g><g class="path" style="transform: matrix(0.01, 0, 0, 0.01, 0, 0); transform-origin: 109.135px -3.57777px; animation: 1s linear 0.605s 1 normal forwards running bounce-in-7cfee529-cc5d-47bc-adfc-163e037c39e0;"><path d="M218.27-31.08L218.27-7.22L218.27-7.22Q218.27-4.96 219.22-3.86L219.22-3.86L219.22-3.86Q220.16-2.77 221.84-2.77L221.84-2.77L221.84-2.77Q222.64-2.77 223.40-2.96L223.40-2.96L223.40-2.96Q224.15-3.15 224.74-3.40L224.74-3.40L225.67-0.34L225.67-0.34Q224.91 0 223.80 0.25L223.80 0.25L223.80 0.25Q222.68 0.50 221.34 0.50L221.34 0.50L221.34 0.50Q219.87 0.50 218.63 0.08L218.63 0.08L218.63 0.08Q217.39-0.34 216.47-1.22L216.47-1.22L216.47-1.22Q215.54-2.10 215.02-3.49L215.02-3.49L215.02-3.49Q214.49-4.87 214.49-6.85L214.49-6.85L214.49-31.08L218.27-31.08" fill="#d03737" stroke="none" stroke-width="none" transform="translate(-110.94495248794556,11.712235074043274)" style="fill: rgb(208, 55, 55);"></path></g></g>
</g>
</g>
<style id="bounce-in-7cfee529-cc5d-47bc-adfc-163e037c39e0" data-anikit="">@keyframes bounce-in-7cfee529-cc5d-47bc-adfc-163e037c39e0
{
  0% {
    animation-timing-function: cubic-bezier(0.0383,0.3388,0.0421,0.6652);
    transform: matrix(0.01,0,0,0.01,0,0);
    opacity: 1;
  }
  4.7% {
    animation-timing-function: cubic-bezier(0.3296,0.3336,0.5772,0.6672);
    transform: matrix(0.556,0,0,0.556,0,0);
    opacity: 1;
  }
  8.4% {
    animation-timing-function: cubic-bezier(0.0781,0.1617,0.0874,0.9301);
    transform: matrix(0.979,0,0,0.979,0,0);
    opacity: 1;
  }
  12.4% {
    animation-timing-function: cubic-bezier(0.8341,0.1496,0.8634,0.7673);
    transform: matrix(1.153,0,0,1.153,0,0);
    opacity: 1;
  }
  16.3% {
    animation-timing-function: cubic-bezier(0.3264,0.3332,0.5758,0.6695);
    transform: matrix(1.008,0,0,1.008,0,0);
    opacity: 1;
  }
  21.2% {
    animation-timing-function: cubic-bezier(0.0921,0.1883,0.3277,1);
    transform: matrix(0.704,0,0,0.704,0,0);
    opacity: 1;
  }
  24.5% {
    animation-timing-function: cubic-bezier(0.6905,0.0944,0.8759,0.7624);
    transform: matrix(0.626,0,0,0.626,0,0);
    opacity: 1;
  }
  27.7% {
    animation-timing-function: cubic-bezier(0.3688,0.332,0.624,0.6684);
    transform: matrix(0.704,0,0,0.704,0,0);
    opacity: 1;
  }
  32.6% {
    animation-timing-function: cubic-bezier(0.1368,0.2364,0.2451,0.9049);
    transform: matrix(0.958,0,0,0.958,0,0);
    opacity: 1;
  }
  37.4% {
    animation-timing-function: cubic-bezier(0.5936,0.0846,0.3495,1);
    transform: matrix(1.085,0,0,1.085,0,0);
    opacity: 1;
  }
  49.5% {
    animation-timing-function: cubic-bezier(0.5522,0.0981,0.3807,1);
    transform: matrix(0.802,0,0,0.802,0,0);
    opacity: 1;
  }
  62.4% {
    animation-timing-function: cubic-bezier(0.4497,0.1349,0.4911,1);
    transform: matrix(1.044,0,0,1.044,0,0);
    opacity: 1;
  }
  74.1% {
    animation-timing-function: cubic-bezier(0.429,0,0.5239,1);
    transform: matrix(0.914,0,0,0.914,0,0);
    opacity: 1;
  }
  87% {
    animation-timing-function: cubic-bezier(0.3501,0,0.6422,1);
    transform: matrix(1.013,0,0,1.013,0,0);
    opacity: 1;
  }
  95.8% {
    animation-timing-function: cubic-bezier(0.3653,0,0.6776,1);
    transform: matrix(0.992,0,0,0.992,0,0);
    opacity: 1;
  }
  100% {
    transform: matrix(1,0,0,1,0,0);
    opacity: 1;
  }
}</style></svg>